<svg width="16" height="16" viewBox="0 0 16 16" fill="none" xmlns="http://www.w3.org/2000/svg">
<path d="M9.45088 4.09405C9.16526 4.04129 8.90294 4.22356 8.84856 4.50237C8.79419 4.78118 8.97703 5.05339 9.25489 5.10795C10.0914 5.27104 10.7374 5.9186 10.9011 6.75802V6.75862C10.9477 7.00025 11.1604 7.17593 11.4054 7.17593C11.4383 7.17593 11.4712 7.17294 11.5046 7.16694C11.7825 7.11118 11.9653 6.83957 11.911 6.56016C11.6666 5.30642 10.7015 4.33808 9.45088 4.09405" fill="#E5E5E5"/>
<path d="M9.41353 2.00476C9.27969 1.98557 9.14524 2.02514 9.03828 2.11029C8.92833 2.19663 8.85961 2.32134 8.84468 2.46104C8.81301 2.74345 9.01677 2.99888 9.29881 3.03065C11.2438 3.2477 12.7556 4.76286 12.9743 6.71392C13.0036 6.97534 13.2229 7.17261 13.4846 7.17261C13.5043 7.17261 13.5234 7.17141 13.5431 7.16901C13.68 7.15402 13.8019 7.08627 13.8879 6.97834C13.9734 6.87042 14.0122 6.73611 13.9967 6.5988C13.7242 4.16447 11.8401 2.27517 9.41353 2.00476" fill="#E5E5E5"/>
<path fill-rule="evenodd" clip-rule="evenodd" d="M7.38735 8.61519C9.76681 10.994 10.3066 8.24198 11.8216 9.75593C13.2822 11.2161 14.1217 11.5087 12.2711 13.3587C12.0393 13.545 10.5666 15.7861 5.39082 10.6118C0.214416 5.43685 2.45428 3.96259 2.64061 3.73086C4.49564 1.87571 4.78315 2.72006 6.24373 4.18024C7.75874 5.69483 5.0079 6.2364 7.38735 8.61519Z" fill="#E5E5E5"/>
</svg>
