<svg width="16" height="16" viewBox="0 0 16 16" fill="none" xmlns="http://www.w3.org/2000/svg">
<path d="M9.45101 4.09393C9.16538 4.04117 8.90306 4.22344 8.84869 4.50225C8.79431 4.78106 8.97716 5.05327 9.25501 5.10783C10.0916 5.27092 10.7375 5.91848 10.9012 6.7579V6.7585C10.9478 7.00013 11.1606 7.17581 11.4056 7.17581C11.4384 7.17581 11.4713 7.17281 11.5048 7.16682C11.7826 7.11106 11.9655 6.83944 11.9111 6.56003C11.6667 5.3063 10.7017 4.33796 9.45101 4.09393" fill="#81BC3D"/>
<path d="M9.41366 2.00476C9.27981 1.98557 9.14536 2.02514 9.0384 2.11029C8.92845 2.19663 8.85974 2.32134 8.8448 2.46104C8.81313 2.74345 9.01689 2.99888 9.29893 3.03065C11.2439 3.2477 12.7557 4.76286 12.9744 6.71392C13.0037 6.97534 13.223 7.17261 13.4847 7.17261C13.5044 7.17261 13.5235 7.17141 13.5433 7.16901C13.6801 7.15402 13.802 7.08627 13.888 6.97834C13.9735 6.87042 14.0123 6.73611 13.9968 6.5988C13.7243 4.16447 11.8403 2.27517 9.41366 2.00476" fill="#81BC3D"/>
<path fill-rule="evenodd" clip-rule="evenodd" d="M7.38735 8.61507C9.76681 10.9939 10.3066 8.24186 11.8216 9.75581C13.2822 11.216 14.1217 11.5085 12.2711 13.3586C12.0393 13.5448 10.5666 15.786 5.39082 10.6117C0.214416 5.43673 2.45428 3.96247 2.64061 3.73074C4.49564 1.87559 4.78315 2.71994 6.24373 4.18012C7.75874 5.69471 5.0079 6.23628 7.38735 8.61507Z" fill="#81BC3D"/>
</svg>
