<svg width="16" height="16" viewBox="0 0 16 16" fill="none" xmlns="http://www.w3.org/2000/svg">
<path fill-rule="evenodd" clip-rule="evenodd" d="M8 14C4.688 14 2 11.318 2 8C2 4.688 4.688 2 8 2C11.318 2 14 4.688 14 8C14 11.318 11.318 14 8 14ZM9.91401 10.226C9.98601 10.268 10.064 10.292 10.148 10.292C10.298 10.292 10.448 10.214 10.532 10.07C10.658 9.86003 10.592 9.58403 10.376 9.45203L8.24002 8.18003V5.40803C8.24002 5.15603 8.03602 4.95803 7.79001 4.95803C7.54401 4.95803 7.34001 5.15603 7.34001 5.40803V8.43803C7.34001 8.59403 7.42402 8.73803 7.56202 8.82203L9.91401 10.226Z" fill="#969696"/>
</svg>
