<svg width="47" height="24" viewBox="0 0 47 24" fill="none" xmlns="http://www.w3.org/2000/svg">
<path d="M25.3546 4.97729C25.1965 6.45107 25.2931 7.90719 25.583 9.3545C25.6269 9.59277 25.7412 9.6722 25.952 9.71632C26.3561 9.80457 26.7602 9.85752 27.1819 9.85752C28.1834 9.8487 29.1848 9.85752 30.1863 9.85752C31.302 9.85752 32.4089 9.78692 33.5246 9.79575C33.7618 9.79575 33.876 9.73397 33.9023 9.48687C33.9726 8.83382 34.0517 8.18959 34.1395 7.53654C34.1659 7.35122 34.1132 7.19237 34.0253 7.03352C33.4455 5.99217 32.8745 4.93317 32.2332 3.92712C31.8203 3.28289 31.3371 2.69161 30.81 2.13564C30.5114 1.81794 30.1512 1.66791 29.7031 1.69439C28.7719 1.75616 27.832 1.80029 26.892 1.83559C26.6724 1.84441 26.5581 1.90619 26.4615 2.11799C26.1628 2.80634 25.8378 3.47704 25.583 4.18304C25.4864 4.45662 25.381 4.71254 25.3546 4.97729Z" fill="#060606"/>
<path d="M1.1346 5.66565C1.4245 5.65683 1.70561 5.66565 1.99552 5.66565C3.25176 5.6833 4.508 5.63918 5.75546 5.83333C7.62664 6.12455 9.50661 6.26575 11.3866 6.45108C11.9225 6.50403 12.4671 6.5305 13.003 6.57463C13.1436 6.58345 13.249 6.57463 13.2578 6.39813C13.3193 5.66565 13.328 4.942 13.2753 4.21835C13.1084 4.15658 12.9854 4.20953 12.8625 4.21835C12.309 4.2713 11.7555 4.3419 11.2021 4.26248C10.2445 4.1301 9.39241 3.7771 8.82139 2.93873C8.56663 2.56808 8.30308 2.21508 8.07467 1.82678C7.92533 1.57968 7.7672 1.46495 7.46851 1.4826C6.73937 1.52673 6.01022 1.5179 5.28107 1.57085C4.34108 1.64145 3.42745 1.82678 2.57532 2.2592C2.15364 2.471 1.78468 2.73575 1.6002 3.19465C1.40693 3.68003 1.21366 4.17423 1.04675 4.66843C0.967683 4.9067 0.958896 5.17145 0.923756 5.41855C0.897402 5.6127 0.976468 5.66565 1.1346 5.66565Z" fill="#060606"/>
<path d="M46.7019 7.10413C46.6141 6.90998 46.4647 6.76878 46.3154 6.62758C45.2173 5.54211 44.128 4.44781 43.0298 3.36233C42.7839 3.11523 42.5642 2.84165 42.4412 2.5063C42.3798 2.34745 42.4061 2.23273 42.6082 2.20625C42.9244 2.1533 43.2231 2.06505 43.513 1.93268C43.7326 1.8356 43.9347 1.71205 44.0489 1.4826C44.2597 1.07665 44.2773 0.626576 44.3037 0.1765C44.3124 0.01765 44.1982 0 44.084 0C43.9523 0 43.8732 0.0441251 43.882 0.19415C43.8908 0.33535 43.9083 0.476551 43.9083 0.626576C43.9259 1.3061 43.8293 1.42965 43.144 1.49143C43.0825 1.50025 43.0211 1.4826 42.9508 1.4826C42.8366 1.1296 43.0123 0.741301 42.7487 0.37065C42.2304 0.882501 41.7736 1.43848 41.0532 1.64145C40.3504 1.84443 39.6389 1.95033 38.857 2.0474C39.6476 3.27408 39.9727 4.55371 39.9024 5.93041C39.8936 6.15103 39.9024 6.38048 39.9112 6.60111C39.9463 7.76601 40.3944 8.65734 41.4925 9.16919C41.633 9.23979 41.7384 9.26626 41.879 9.20449C42.2743 9.02799 42.6697 8.87796 43.065 8.70146C43.4603 8.51614 43.8468 8.50731 44.2685 8.63086C44.7517 8.78089 45.2524 8.89561 45.7356 9.02799C45.8762 9.06329 46.0079 9.08976 46.1485 9.00151C46.6756 8.64851 46.9655 7.66011 46.7019 7.10413Z" fill="#060606"/>
<path d="M19.4335 14.3671C19.2578 14.0317 19.2139 13.6787 19.2227 13.2992C19.2315 12.8845 19.3544 12.4873 19.4072 12.0196C19.003 12.1167 18.6517 11.9402 18.2739 11.9314C16.7629 11.9137 15.2519 11.9667 13.7497 12.0549C13.2138 12.0814 12.6691 12.099 12.1332 12.2049C11.8609 12.2579 11.6325 12.3638 11.448 12.5844C10.8946 13.211 10.2533 13.7228 9.53292 14.1376C8.56658 14.6936 7.65295 15.329 6.73053 15.9467C6.65147 15.9997 6.5724 16.0615 6.51091 16.1232C6.46699 16.1674 6.47577 16.2468 6.50213 16.3086C6.53727 16.3703 6.58997 16.3792 6.66025 16.3527C7.47725 16.0526 8.3206 16.1321 9.15517 16.2027C9.40993 16.2203 9.66469 16.2291 9.91946 16.238C10.1742 16.2468 10.3675 16.1497 10.5256 15.9291C10.7892 15.5673 11.0264 15.1966 11.1406 14.7465C11.1845 14.5612 11.246 14.3759 11.3338 14.2082C11.5007 13.864 11.6852 13.8023 12.0278 13.9611C13.6091 14.7201 15.287 15.1966 16.9737 15.6555C17.7819 15.8761 18.6077 16.0615 19.4335 16.2027C19.5653 16.2291 19.7146 16.2468 19.6971 16.0526C19.6268 15.4878 19.7058 14.8966 19.4335 14.3671Z" fill="#060606"/>
<path d="M1.27515 7.38652C2.37326 7.89837 3.20783 8.71027 3.77885 9.78692C3.92819 10.0693 4.09511 10.3429 4.25324 10.6165C4.6222 11.2607 4.92089 11.9226 4.94724 12.6815C4.95603 12.9198 5.07902 13.0081 5.29864 13.0345C6.04536 13.1228 6.79208 13.0875 7.53879 13.061C7.72328 13.0522 7.78477 12.9639 7.77599 12.7874C7.75842 12.4874 7.74963 12.1785 7.74084 11.8784C7.71449 11.0312 7.68814 10.1929 7.87262 9.3545C7.96925 8.9309 7.96925 8.49847 7.87262 8.06604C7.75841 7.55419 7.60907 7.05117 7.48609 6.53932C7.44216 6.37164 7.37188 6.28339 7.17861 6.24809C5.86966 6.04512 4.56949 5.89509 3.24297 5.87744C2.71588 5.87744 2.19757 5.87744 1.67047 5.87744C0.897398 5.87744 0.923752 5.87744 0.862257 6.65404C0.809548 7.05117 0.941323 7.23649 1.27515 7.38652Z" fill="#060606"/>
<path d="M30.6519 15.3908C31.381 15.0025 32.075 14.5436 32.3825 13.6523C32.6724 12.7962 33.1292 11.9932 33.4982 11.1636C33.6563 10.8194 33.7969 10.4576 33.8408 10.0164C33.6387 10.0164 33.4806 10.0164 33.3225 10.0164C31.3195 10.0428 29.3166 10.0605 27.3136 10.0958C26.9007 10.1046 26.4878 10.0605 26.0837 9.98106C25.9783 9.96341 25.8729 9.88398 25.7587 9.98106C25.8992 10.6165 26.1101 11.2254 26.3385 11.8431C26.523 12.355 26.4351 12.302 26.9622 12.302C28.7455 12.3109 30.5201 12.3109 32.3034 12.3197C32.4352 12.3197 32.6636 12.2403 32.6724 12.3991C32.6724 12.6286 32.4264 12.5227 32.2946 12.5227C30.5816 12.5668 28.8597 12.5491 27.1467 12.5138C26.9798 12.5138 26.8129 12.5138 26.5932 12.5138C26.9007 13.2728 27.1818 13.9876 27.4717 14.6936C27.5332 14.8436 27.5947 14.9848 27.665 15.126C27.8143 15.4349 28.0603 15.6026 28.3941 15.682C29.176 15.8497 29.9579 15.7526 30.6519 15.3908Z" fill="#060606"/>
<path d="M17.3603 5.46272C17.3515 6.56585 17.3603 7.66898 17.3603 8.76328C17.3603 9.27513 17.29 9.2663 17.8347 9.25748C18.8713 9.24865 19.8991 9.24865 20.9358 9.22218C21.2169 9.21335 21.5683 9.34573 21.7528 9.13393C21.9197 8.9486 21.8055 8.61325 21.8055 8.3485C21.823 7.40422 21.823 6.45995 21.6913 5.53332C21.5771 4.7832 21.5419 4.04189 21.5858 3.29177C21.5946 3.11527 21.6034 2.93877 21.6122 2.76227C21.6298 2.24159 21.7088 2.25042 21.1027 2.27689C20.5756 2.29454 20.0573 2.32102 19.5302 2.33867C18.7395 2.37397 17.9489 2.40927 17.1143 2.45339C17.1319 2.62989 17.1319 2.75344 17.1582 2.87699C17.3252 3.74184 17.3691 4.59787 17.3603 5.46272Z" fill="#060606"/>
<path d="M8.39967 12.9551C9.39237 12.7521 10.3675 12.4609 11.3426 12.1785C11.448 12.152 11.5623 12.1255 11.6325 12.0285C12.1684 11.3578 12.7394 10.7047 12.9063 9.82222C13.0557 9.03679 13.126 8.24254 13.1962 7.44829C13.2577 6.71581 13.3192 6.83936 12.6516 6.77759C11.2196 6.63639 9.77891 6.51284 8.33818 6.38929C8.12735 6.37164 7.90772 6.30986 7.66174 6.38046C7.75838 6.75111 7.85501 7.10411 7.95164 7.45712C8.1537 8.15429 8.20641 8.86029 8.06585 9.58394C7.83744 10.7047 8.01314 11.8343 7.98679 12.9551C8.1537 13.008 8.27668 12.9816 8.39967 12.9551Z" fill="#060606"/>
<path d="M26.0134 12.4873C25.2052 12.4609 24.397 12.3991 23.5888 12.3461C22.4204 12.2755 21.2608 12.0196 20.0836 11.9843C19.6707 11.9755 19.6707 11.9578 19.5917 12.3461C19.5565 12.5138 19.5302 12.6903 19.495 12.858C19.3896 13.3698 19.3984 13.864 19.6795 14.3318C19.7674 14.4818 19.7937 14.6583 19.8201 14.8348C19.8552 15.1966 19.9255 15.5673 19.8991 15.9291C19.8816 16.1938 19.9958 16.2468 20.233 16.238C20.9972 16.2203 21.744 16.0968 22.4995 15.9909C23.4131 15.8585 24.3179 15.682 25.2404 15.6996C26.0222 15.7173 26.7953 15.6643 27.5947 15.5231C27.1467 14.6053 26.8128 13.6964 26.4527 12.7962C26.3648 12.5756 26.2506 12.4962 26.0134 12.4873Z" fill="#060606"/>
<path d="M36.1508 12.2311C36.1508 12.2228 36.1508 12.2228 36.1508 12.2311C36.1425 12.2311 36.1425 12.2311 36.1425 12.2311H36.1508Z" fill="#060606"/>
<path d="M41.0883 9.16922C40.3592 8.80739 39.9814 8.18964 39.7969 7.43069C39.7091 7.06887 39.6652 6.70704 39.6652 6.33639C39.6652 5.88632 39.6915 5.43624 39.6564 4.99499C39.5861 4.02424 39.2874 3.12409 38.7428 2.31219C38.6461 2.16216 38.5407 2.04744 38.3299 2.05626C37.5041 2.09156 36.6783 2.09156 35.8701 2.06509C35.8174 2.21511 35.8789 2.31219 35.914 2.41809C36.0722 2.85051 36.2215 3.29176 36.3708 3.72419C36.9331 5.41859 37.1 7.15712 36.7837 8.91329C36.608 9.86639 36.3796 10.8195 36.1776 11.7638C36.1424 11.9138 36.0809 12.0638 36.1512 12.2227C36.854 11.4461 37.6183 10.7401 38.4441 10.0958C38.98 9.68107 39.5861 9.48692 40.2538 9.45162C40.5085 9.43397 40.7633 9.44279 41.018 9.42514C41.1147 9.41632 41.2465 9.46927 41.2816 9.31042C41.2728 9.29277 41.264 9.27512 41.2552 9.26629C41.2025 9.23099 41.1498 9.19569 41.0883 9.16922Z" fill="#060606"/>
<path d="M22.0163 8.80739C22.0251 9.20452 22.0251 9.21334 22.3941 9.21334C23.378 9.20452 24.3619 9.16039 25.3809 9.60165C25.3458 9.38102 25.337 9.27512 25.3194 9.16922C25.0822 8.02197 25.0208 6.86589 25.0559 5.69217C25.0735 5.12736 25.1613 4.58021 25.3809 4.05954C25.6181 3.48591 25.8641 2.92111 26.1101 2.34749C26.1716 2.20629 26.277 2.07391 26.2507 1.87976C26.0574 1.89741 25.8729 1.90624 25.6884 1.92389C24.5024 2.01214 23.3253 2.23276 22.1305 2.25924C21.867 2.26806 21.8143 2.38279 21.8143 2.61224C21.8143 3.58299 21.7352 4.55374 21.8933 5.52449C22.0866 6.60114 21.9987 7.71309 22.0163 8.80739Z" fill="#060606"/>
<path d="M36.7046 7.78362C36.8452 5.81564 36.2918 3.99769 35.5978 2.19738C35.5626 2.10913 35.5363 2.00323 35.4221 1.98558C35.097 1.93263 34.8159 1.74731 34.4469 1.65906C34.5875 2.00323 34.6754 2.31211 34.6929 2.62981C34.7368 3.37994 34.7368 4.13006 34.6578 4.88019C34.5172 6.25689 34.324 7.63359 34.2098 9.01912C34.1131 10.1399 33.8057 11.1724 33.2961 12.1608C33.0589 12.6285 32.8393 13.1139 32.6285 13.5905C32.5846 13.6876 32.4967 13.7758 32.5494 13.8905C32.6373 13.917 32.8569 13.6876 32.9184 13.6346C33.4806 13.1051 34.1307 12.7168 34.8247 12.3903C35.1849 12.2226 35.6065 12.1079 35.8613 11.8343C36.1336 11.5431 36.0897 11.0577 36.1776 10.6517C36.3884 9.69864 36.6344 8.75437 36.7046 7.78362Z" fill="#060606"/>
<path d="M9.84924 13.67C10.35 13.3699 10.7804 12.9816 11.2285 12.4521C10.6838 12.6022 10.2358 12.7257 9.79653 12.8493C8.36459 13.264 6.90629 13.4405 5.41285 13.2729C4.73642 13.1934 4.06876 13.0611 3.60316 12.4963C3.60316 12.4874 3.59438 12.4874 3.59438 12.4874C3.45382 12.4345 3.40989 12.2315 3.21662 12.2139C3.32204 12.761 3.29569 13.2993 3.30447 13.8377C3.31326 14.2701 3.21663 14.6407 2.93551 14.9849C2.5929 15.4173 2.29421 15.8851 1.9516 16.3793C2.8828 16.5999 3.76129 16.794 4.65735 16.9088C4.85062 16.9352 5.0351 16.9088 5.22837 16.8735C5.40407 16.8382 5.55342 16.7764 5.65884 16.6087C5.90481 16.2292 6.24742 15.9645 6.63396 15.7174C7.70572 15.0379 8.75991 14.323 9.84924 13.67Z" fill="#060606"/>
<path d="M19.1788 11.7373C19.5917 11.7373 20.0046 11.7549 20.4175 11.7814C21.6562 11.852 22.8685 12.1079 24.1071 12.1697C24.8012 12.205 25.4864 12.2403 26.2419 12.2756C25.9695 11.4814 25.6972 10.7489 25.5215 9.99876C25.4864 9.84874 25.3722 9.79579 25.2492 9.76049C24.6342 9.59281 24.0281 9.41631 23.3868 9.43396C22.4204 9.46044 21.4541 9.45161 20.4878 9.46044C20.0749 9.46044 19.662 9.47809 19.2491 9.47809C19.0207 9.47809 18.8977 9.52221 18.9065 9.79579C18.9241 10.3518 18.9153 10.9077 18.9065 11.4725C18.8977 11.6579 18.968 11.7285 19.1788 11.7373Z" fill="#060606"/>
<path d="M31.3547 22.3361C31.0384 21.9125 30.8803 21.4448 30.7837 20.9329C30.6519 20.2269 30.6343 19.5032 30.6695 18.7884C30.6782 18.6825 30.731 18.559 30.6431 18.4707C30.5113 18.3295 29.6768 18.2148 29.5011 18.3383C29.0706 18.6384 28.6314 18.709 28.157 18.4089C27.9461 19.8827 28.0691 21.2683 28.3766 22.6538C28.5787 23.5628 28.5523 23.5716 29.4308 23.7746C29.5713 23.8099 29.7119 23.8099 29.8525 23.8099C30.5377 23.8099 31.2229 23.8099 31.8993 23.8099C32.0135 23.8099 32.1453 23.8363 32.2507 23.7834C32.242 23.5804 32.1277 23.4569 32.0399 23.3245C31.8115 22.9891 31.5919 22.6626 31.3547 22.3361Z" fill="#060606"/>
<path d="M16.8859 5.68329C16.5257 5.70094 16.148 5.67447 15.7966 5.72742C15.0586 5.83332 14.3295 5.99217 13.5301 5.75389C13.4598 6.98939 13.3719 8.14547 13.2226 9.28389C13.2753 9.31037 13.3017 9.33684 13.328 9.33684C14.514 9.31919 15.7087 9.30154 16.8947 9.28389C17.0792 9.28389 17.1407 9.20447 17.1407 9.02797C17.1319 7.99544 17.1319 6.95409 17.1407 5.92157C17.1407 5.72742 17.0616 5.67447 16.8859 5.68329Z" fill="#060606"/>
<path d="M18.4233 9.51331C17.9929 9.52213 17.5624 9.51331 17.1407 9.52213C15.9548 9.53978 14.76 9.55743 13.574 9.57508C13.1963 9.58391 13.1875 9.58391 13.0996 9.98986C12.9942 10.4841 12.7483 10.9077 12.4671 11.3136C12.3266 11.5166 12.1772 11.7196 12.0103 11.9667C13.697 11.8078 15.3222 11.7284 16.9562 11.7196C17.4482 11.7196 17.9402 11.7107 18.4321 11.7196C18.6078 11.7196 18.6957 11.6666 18.6869 11.4725C18.6781 10.8988 18.6781 10.3252 18.6869 9.75158C18.6781 9.55743 18.599 9.51331 18.4233 9.51331Z" fill="#060606"/>
<path d="M10.473 19.0267C10.4466 18.9384 10.3851 18.9031 10.2973 18.912C10.0161 18.9384 9.71744 18.8767 9.4539 19.0179C8.95316 19.3003 8.42606 19.2914 7.8814 19.212C7.76719 19.1944 7.6442 19.1149 7.52121 19.1944C7.50364 19.3356 7.5915 19.4415 7.63542 19.5562C8.03953 20.5181 8.68083 21.3388 9.24306 22.2037C9.48904 22.5832 9.75259 22.8391 10.2358 22.7597C10.3236 22.742 10.429 22.7508 10.5081 22.8038C10.5169 23.1391 10.3324 23.4392 10.3675 23.801C11.2548 23.8893 12.0982 23.6686 12.9503 23.501C12.9327 23.4215 12.9327 23.3774 12.9064 23.3333C12.0542 21.9125 10.9649 20.6417 10.473 19.0267Z" fill="#060606"/>
<path d="M13.5301 5.32142C13.5125 5.50675 13.6443 5.56852 13.7936 5.595C14.1099 5.63912 14.4174 5.68325 14.7424 5.64795C15.454 5.56852 16.1568 5.40967 16.8771 5.4538C17.088 5.46262 17.1407 5.37437 17.1495 5.1714C17.1758 4.35067 17.0353 3.54759 16.9211 2.74452C16.8859 2.50624 16.7717 2.43564 16.5433 2.44447C15.8932 2.47094 15.2344 2.47094 14.6018 2.32092C14.1275 2.20619 13.6531 2.06499 13.1611 1.93262C13.1435 1.98557 13.126 2.00322 13.126 2.01204C13.3544 3.10634 13.6091 4.19182 13.5301 5.32142Z" fill="#060606"/>
<path d="M4.35866 19.821C4.29716 19.618 4.16539 19.6886 4.05118 19.7239C3.44502 19.8916 2.85644 19.8298 2.25906 19.6798C2.16243 19.6533 2.06579 19.5562 1.93402 19.671C1.95159 20.3593 1.94281 21.0565 2.05701 21.7537C2.16243 22.3714 2.44355 22.6715 3.06728 22.7774C3.16391 22.795 3.26054 22.7774 3.34839 22.848C3.4011 23.0509 3.34839 23.2539 3.34839 23.4569C3.33961 23.8187 3.35718 23.8805 3.691 23.8452C4.41137 23.7746 5.13173 23.6599 5.87845 23.5628C5.86088 23.4657 5.86088 23.4481 5.85209 23.4392C5.35135 22.239 4.72762 21.083 4.35866 19.821Z" fill="#060606"/>
<path d="M34.1922 6.80408C34.3855 5.46268 34.5524 4.13011 34.4822 2.7887C34.4734 2.6122 34.4382 2.44453 34.4119 2.26803C34.3065 1.6944 34.0253 1.4826 33.4543 1.5179C33.0766 1.54438 32.69 1.5532 32.3123 1.57968C31.7764 1.60615 31.2493 1.64145 30.6168 1.67675C32.2508 3.15053 33.1029 5.05673 34.1922 6.80408Z" fill="#060606"/>
<path d="M10.9649 4.00661C11.6765 4.15663 12.3881 4.03308 13.0909 3.96248C13.2929 3.94483 13.2402 3.78598 13.2226 3.67126C13.1348 3.20353 13.0118 2.73581 12.9415 2.26808C12.8888 1.88861 12.6955 1.72976 12.3266 1.68563C10.9561 1.51796 9.58568 1.48266 8.12738 1.49148C8.36457 1.95038 8.62812 2.28573 8.85653 2.64756C9.35727 3.42416 10.0952 3.82128 10.9649 4.00661Z" fill="#060606"/>
<path d="M3.88425 12.4873C4.13023 12.6903 4.38499 12.8492 4.73639 12.8933C4.72761 12.3814 4.63975 11.9314 4.44648 11.5166C4.01602 10.59 3.5065 9.70747 2.89155 8.89557C2.37324 8.20722 1.60894 7.84539 0.844647 7.41296C0.827077 7.54534 0.818294 7.60711 0.818294 7.66889C0.862218 9.16914 0.65138 10.6782 1.05549 12.152C1.06427 12.1432 1.09063 12.1255 1.09941 12.099C1.18726 11.8519 1.20484 11.5519 1.5738 11.5342C1.69679 11.5254 1.65287 11.3842 1.65287 11.296C1.65287 10.8459 1.64408 10.4046 1.64408 9.95457C1.64408 9.68982 1.64408 9.43389 1.64408 9.20444C1.75829 9.14267 1.77586 9.21327 1.79343 9.23974C2.4523 10.2546 2.81248 11.4372 3.67341 12.3285C3.69976 12.3285 3.83154 12.4432 3.88425 12.4873Z" fill="#060606"/>
<path d="M9.11125 18.9208C9.41873 18.7796 9.73498 18.6825 10.0776 18.6913C10.2972 18.7002 10.4114 18.6207 10.3411 18.3825C10.2182 17.9147 10.306 17.4647 10.4114 17.0146C10.4641 16.7675 10.5344 16.5292 10.6135 16.2203C10.2796 16.4763 9.94582 16.4674 9.62078 16.4498C9.30452 16.4321 8.98826 16.4145 8.67201 16.3792C8.10977 16.3174 7.55632 16.3615 7.01166 16.4586C6.61634 16.5292 6.53727 16.6704 6.66905 17.0499C6.85353 17.5794 7.0468 18.1001 7.24885 18.6207C7.29277 18.7355 7.31913 18.8855 7.46847 18.9031C8.01314 18.9826 8.56659 19.1679 9.11125 18.9208Z" fill="#060606"/>
<path d="M28.6226 18.3561C28.851 18.4002 29.0706 18.3649 29.2551 18.2149C29.5186 18.0031 29.8085 18.0119 30.116 18.0737C30.2566 18.1001 30.3971 18.1266 30.5289 18.1884C30.7485 18.2943 30.8276 18.1972 30.9066 17.9942C31.1965 17.2882 31.4601 16.5646 31.8291 15.9027C32.0399 15.5232 32.0575 15.1791 32.0048 14.676C30.8891 15.7703 29.6153 16.1586 28.113 15.8498C28.1482 16.5116 28.157 17.1294 28.1394 17.7471C28.1218 18.1354 28.2448 18.2943 28.6226 18.3561Z" fill="#060606"/>
<path d="M2.09214 19.3973C2.77737 19.6179 3.45381 19.6709 4.15661 19.4767C4.25324 19.4503 4.32353 19.3973 4.3411 19.2914C4.40259 18.5501 4.80669 17.95 5.16688 17.3323C5.20202 17.2705 5.26351 17.2087 5.2108 17.1116C4.08633 17.1734 3.02335 16.7939 1.91644 16.6174C1.91644 17.4823 1.91644 18.2942 1.91644 19.1061C1.91644 19.2385 1.9428 19.3532 2.09214 19.3973Z" fill="#060606"/>
<path d="M1.55626 11.7726C1.44206 11.7549 1.40692 11.8608 1.38935 11.9579C1.36299 12.0814 1.33664 12.205 1.31029 12.3285C1.28393 12.4433 1.22244 12.5845 1.11702 12.5668C0.756838 12.5227 0.844684 12.761 0.844684 12.9551C0.844684 13.114 0.844684 13.2728 0.844684 13.4317C0.835899 13.7052 0.774406 14.0494 0.686557 14.3406C0.642633 14.4201 0.458149 14.8172 0.40544 14.8966C0.291237 15.0643 0.11554 15.2408 0.203389 15.4879C0.220959 15.5055 0.229744 15.5144 0.247313 15.532C0.308807 15.4702 0.343947 15.3114 0.335162 15.3202C0.335162 15.2937 0.352734 15.2673 0.370304 15.2496L0.352733 15.2761C0.361518 15.2584 0.370302 15.2496 0.379086 15.232C0.387871 15.2143 0.387872 15.2055 0.396657 15.1878C0.405442 15.1702 0.405443 15.1614 0.414228 15.1437C0.405443 15.0731 0.502077 14.8348 0.589925 14.6319C0.677774 14.5436 0.871038 14.3495 1.02038 14.3759C1.16972 14.3936 1.31907 14.4907 1.51234 14.4289C1.66168 13.617 1.67046 12.7963 1.67925 11.9667C1.66168 11.8785 1.64411 11.7814 1.55626 11.7726Z" fill="#060606"/>
<path d="M1.17849 14.6407C1.00279 14.5965 0.844663 14.5524 0.748028 14.7819C0.695319 14.9142 0.704102 15.1525 0.581113 15.2055C0.545973 15.2672 0.510834 15.3378 0.466909 15.3996C0.466909 15.4084 0.466909 15.4084 0.466909 15.4173V15.4084C0.422985 15.4879 0.379062 15.5585 0.326353 15.6202C0.326353 15.6202 0.335135 15.6202 0.335135 15.6291C0.273641 15.7879 0.0628013 15.832 0.0540164 16.0527C0.0276616 16.944 -0.0426136 17.8353 0.0364508 18.7266C0.0628056 19.0267 0.203362 19.1149 0.48448 19.0443C0.756813 18.9737 0.879803 18.8414 0.923727 18.5501C0.976437 18.153 1.02036 17.7559 1.07307 17.3676C1.18728 16.5645 1.2927 15.7614 1.42447 14.9584C1.45961 14.7289 1.33662 14.6848 1.17849 14.6407Z" fill="#060606"/>
<path d="M35.5363 12.2844C34.649 12.7168 33.753 13.114 33.0326 13.8111C32.9711 13.8641 32.7075 14.0935 32.6373 14.1377C32.2068 14.4289 32.2068 14.8437 32.2595 15.2849C32.2771 15.4349 32.3298 15.4967 32.5055 15.4879C32.8481 15.4702 33.1468 15.3732 33.4191 15.1437C34.0341 14.6142 34.6139 14.0494 35.1761 13.467C35.387 13.2463 35.5451 12.9904 35.7032 12.7345C35.7999 12.5668 35.8613 12.3903 35.8174 12.1697C35.712 12.2138 35.6242 12.2403 35.5363 12.2844Z" fill="#060606"/>
</svg>
