<svg width="178" height="38" viewBox="0 0 178 38" fill="none" xmlns="http://www.w3.org/2000/svg">
<path d="M5.69263 4.64196V32.5113H0V4.64196C0 2.09153 2.61791 0 5.69263 0H16.7968V4.64196H5.69263Z" fill="#060606"/>
<path d="M18.7997 32.5113V0H29.9039C32.9786 0 35.5965 2.09153 35.5965 4.64196V16.2557C35.5965 18.2501 32.9786 19.8827 29.9039 19.8827H24.4924V32.5202H18.7997V32.5113ZM24.4924 4.64196V16.2557H29.9039V4.64196H24.4924Z" fill="#060606"/>
<path d="M49.8369 0C52.9731 0 55.5295 2.17978 55.5295 4.64196V27.8694C55.5295 30.4198 52.9116 32.5113 49.8369 32.5113H44.4254C41.3506 32.5113 38.7327 30.4198 38.7327 27.8694V4.64196C38.7327 2.17978 41.2979 0 44.4254 0H49.8369V0ZM49.8369 27.8694V4.64196H44.4254V27.8694H49.8369V27.8694Z" fill="#060606"/>
<path d="M64.9381 27.8694H70.9206V20.0151H76.6133V27.8694C76.6133 30.3757 74.0481 32.5113 70.9206 32.5113H64.9381C61.8019 32.5113 59.2455 30.3316 59.2455 27.8694V4.64196C59.2455 2.17978 61.8107 0 64.9381 0H70.9206C74.0568 0 76.6133 2.13565 76.6133 4.64196V12.4962H70.9206V4.64196H64.9381V27.8694Z" fill="#060606"/>
<path d="M86.0131 27.8694H91.9957V20.0151H97.6883V27.8694C97.6883 30.3757 95.1231 32.5113 91.9957 32.5113H86.0131C82.8769 32.5113 80.3205 30.3316 80.3205 27.8694V4.64196C80.3205 2.17978 82.8857 0 86.0131 0H91.9957C95.1319 0 97.6883 2.13565 97.6883 4.64196V12.4962H91.9957V4.64196H86.0131V27.8694Z" fill="#060606"/>
<path d="M121.329 4.64196V0H127.021V4.64196H132.433C135.507 4.64196 138.125 6.73349 138.125 9.28391V24.2423C138.125 26.1926 135.56 27.8694 132.433 27.8694H127.021V32.5113H121.329V27.8694H115.917C112.781 27.8694 110.224 26.2015 110.224 24.2423V9.28391C110.224 6.73349 112.842 4.64196 115.917 4.64196H121.329ZM121.329 24.2423V9.28391H115.917V24.2423H121.329ZM132.433 9.28391H127.021V24.2423H132.433V9.28391Z" fill="#060606"/>
<path d="M157.496 0V32.5113C157.496 34.9735 154.931 37.1533 151.803 37.1533H140.699V32.5113H151.803V27.8694H146.392C143.317 27.8694 140.699 25.7337 140.699 23.1745V0H146.392V23.1745H151.803V0H157.496Z" fill="#060606"/>
<path d="M178 0V32.5113C178 34.9735 175.435 37.1533 172.307 37.1533H161.203V32.5113H172.307V27.8694H166.896C163.821 27.8694 161.203 25.7337 161.203 23.1745V4.64196C161.203 2.17978 163.768 0 166.896 0H178V0ZM172.307 23.1745V4.64196H166.896V23.1745H172.307Z" fill="#060606"/>
</svg>
