<svg width="16" height="16" viewBox="0 0 16 16" fill="none" xmlns="http://www.w3.org/2000/svg">
<path fill-rule="evenodd" clip-rule="evenodd" d="M2.33331 6.87855C2.33331 3.81197 4.8959 1.33337 7.99561 1.33337C11.1041 1.33337 13.6666 3.81197 13.6666 6.87855C13.6666 8.42383 13.1047 9.85846 12.1796 11.0744C11.1592 12.4157 9.90142 13.5844 8.48567 14.5017C8.16165 14.7137 7.86923 14.7297 7.51361 14.5017C6.0898 13.5844 4.83204 12.4157 3.82031 11.0744C2.89464 9.85846 2.33331 8.42383 2.33331 6.87855ZM6.12947 7.05121C6.12947 8.07851 6.96775 8.88649 7.99561 8.88649C9.02414 8.88649 9.87049 8.07851 9.87049 7.05121C9.87049 6.0319 9.02414 5.1846 7.99561 5.1846C6.96775 5.1846 6.12947 6.0319 6.12947 7.05121Z" fill="#81BC3D"/>
</svg>
