<svg width="16" height="16" viewBox="0 0 16 16" fill="none" xmlns="http://www.w3.org/2000/svg">
<path fill-rule="evenodd" clip-rule="evenodd" d="M2.33331 6.87842C2.33331 3.81185 4.8959 1.33325 7.99561 1.33325C11.1041 1.33325 13.6666 3.81185 13.6666 6.87842C13.6666 8.42371 13.1047 9.85834 12.1796 11.0743C11.1592 12.4156 9.90142 13.5842 8.48567 14.5015C8.16165 14.7135 7.86923 14.7295 7.51361 14.5015C6.0898 13.5842 4.83204 12.4156 3.82031 11.0743C2.89464 9.85834 2.33331 8.42371 2.33331 6.87842ZM6.12947 7.05109C6.12947 8.07839 6.96775 8.88637 7.99561 8.88637C9.02414 8.88637 9.87049 8.07839 9.87049 7.05109C9.87049 6.03178 9.02414 5.18447 7.99561 5.18447C6.96775 5.18447 6.12947 6.03178 6.12947 7.05109Z" fill="#969696"/>
</svg>
