<svg width="40" height="25" viewBox="0 0 40 25" fill="none" xmlns="http://www.w3.org/2000/svg">
<path d="M36.7335 12.5005C36.7335 17.9004 32.2516 22.2781 26.7224 22.2781C21.1936 22.2781 16.7113 17.9007 16.7113 12.5005C16.7113 7.10014 21.1935 2.72241 26.7224 2.72241C32.2519 2.72241 36.7335 7.10008 36.7335 12.5005Z" fill="#D9222A"/>
<path d="M18.9887 18.7091C18.7115 18.3807 18.4567 18.0348 18.226 17.6737H21.7741C21.9877 17.3402 22.1803 16.9943 22.351 16.638H17.6493C17.4879 16.3012 17.3465 15.9557 17.2256 15.6031H22.7743C23.1081 14.6279 23.289 13.5849 23.289 12.5003C23.289 11.7896 23.2114 11.0969 23.0644 10.4297H16.9366C17.0138 10.0796 17.1107 9.73391 17.2271 9.39428H22.7737C22.6526 9.04174 22.5112 8.69613 22.3502 8.35911H17.6507C17.8215 8.00304 18.0141 7.65731 18.2273 7.32367H21.7731C21.542 6.96318 21.2873 6.61762 21.0106 6.28922H18.9901C19.3007 5.92083 19.6384 5.57494 20.0003 5.25427C18.2236 3.68093 15.865 2.72229 13.2779 2.72229C7.74886 2.72234 3.26685 7.10002 3.26685 12.5004C3.26685 17.9003 7.74908 22.2779 13.2785 22.2779C15.8659 22.2779 18.2242 21.3195 20.0009 19.7464C20.3634 19.4252 20.7015 19.0786 21.0123 18.7094H18.9894" fill="#0097D0"/>
<path d="M35.3987 17.9492C35.3987 17.7749 35.5435 17.6335 35.7223 17.6335C35.9007 17.6336 36.0453 17.7749 36.0453 17.9492C36.0453 18.1238 35.9007 18.2652 35.7223 18.2652C35.5436 18.2652 35.3987 18.1238 35.3987 17.9492ZM35.7223 18.1893C35.8578 18.1894 35.9678 18.0822 35.9679 17.9498V17.9492C35.9679 17.817 35.8582 17.7098 35.7227 17.7098H35.7222C35.5867 17.7095 35.4766 17.8166 35.4763 17.949V17.9492C35.4762 18.0818 35.5862 18.1893 35.7219 18.1893H35.7223ZM35.6783 18.0879H35.6123V17.8106H35.7321C35.757 17.8106 35.7826 17.8108 35.8047 17.8246C35.8279 17.84 35.8407 17.8668 35.8407 17.8938C35.8407 17.9255 35.8218 17.9544 35.7916 17.9655L35.8437 18.0878H35.7704L35.7271 17.9784H35.6783V18.0879V18.0879ZM35.6783 17.9311H35.715C35.7287 17.9311 35.7432 17.932 35.7555 17.9255C35.7662 17.9181 35.7725 17.9061 35.7723 17.8933C35.7718 17.882 35.7658 17.8717 35.7562 17.8654C35.7444 17.8585 35.7261 17.8599 35.7137 17.8599H35.6783V17.9311V17.9311ZM19.8574 15.1419C19.4295 15.2527 19.0158 15.3067 18.5784 15.3059C17.183 15.3046 16.4562 14.6839 16.4562 13.4974C16.4562 12.1107 17.3814 11.0907 18.6372 11.0907C19.6645 11.0907 20.3203 11.6626 20.3203 12.5585C20.3203 12.8558 20.2759 13.1452 20.1672 13.5551H17.6857C17.5975 14.1343 18.0309 14.3888 18.7686 14.3888C19.2106 14.3888 19.6104 14.3111 20.0528 14.1375L19.8574 15.1419ZM19.1901 12.737C19.1901 12.6494 19.3282 12.027 18.61 12.0134C18.2136 12.0134 17.9291 12.2708 17.814 12.737H19.1901ZM20.698 12.4652C20.698 12.9774 20.9934 13.3312 21.6646 13.5947C22.1777 13.8001 22.2586 13.8593 22.2586 14.0425C22.2586 14.2965 22.0318 14.4132 21.5283 14.4099C21.1503 14.4073 20.8053 14.3625 20.3981 14.2522L20.218 15.1866C20.5798 15.2685 21.0874 15.2955 21.5371 15.3058C22.8771 15.3058 23.4958 14.8772 23.4958 13.9512C23.4958 13.3947 23.2378 13.067 22.6015 12.823C22.0695 12.6155 22.0071 12.5703 22.0071 12.3827C22.0071 12.1621 22.2178 12.0504 22.6289 12.0504C22.8778 12.0504 23.219 12.0729 23.5425 12.1108L23.7243 11.1716C23.3945 11.1266 22.8941 11.0908 22.6046 11.0908C21.1851 11.0909 20.6938 11.715 20.698 12.4652V12.4652ZM15.776 15.2388H14.7351L14.7599 14.8129C14.4425 15.1489 14.0197 15.3053 13.4459 15.3053C12.7668 15.3053 12.3015 14.8519 12.3015 14.1998C12.3015 13.2087 13.1103 12.637 14.5007 12.637C14.6437 12.637 14.8254 12.6474 15.0121 12.6676C15.0506 12.535 15.0611 12.4781 15.0611 12.4057C15.0611 12.1345 14.8424 12.0346 14.2572 12.0346C13.6804 12.0369 13.2911 12.1202 12.9299 12.2151L13.1077 11.3054C13.7322 11.1504 14.1413 11.0907 14.604 11.0907C15.6807 11.0907 16.2494 11.5029 16.2494 12.278C16.2587 12.4847 16.1848 12.8997 16.1479 13.0812C16.1055 13.3455 15.8071 14.8773 15.776 15.2388V15.2388ZM14.8624 13.4309C14.7304 13.4177 14.673 13.4139 14.5828 13.4139C13.8728 13.4139 13.5128 13.6202 13.5128 14.0276C13.5128 14.2832 13.6885 14.4434 13.9623 14.4434C14.4725 14.4434 14.8408 14.0266 14.8624 13.4309ZM25.6895 15.1745C25.3479 15.2661 25.0818 15.3057 24.7938 15.3057C24.156 15.3057 23.8079 14.9875 23.8079 14.4206C23.788 14.2649 23.9437 13.5458 23.9789 13.3455C24.0142 13.1445 24.5667 10.2139 24.5667 10.2139H25.8056L25.6181 11.1835H26.2536L26.0808 12.1732H25.4427C25.4427 12.1732 25.0925 13.8907 25.0925 14.0217C25.0925 14.23 25.2217 14.3205 25.5182 14.3205C25.6603 14.3205 25.7698 14.3076 25.8545 14.2829L25.6895 15.1745V15.1745ZM31.2253 11.0906C30.3173 11.0906 29.6077 11.4556 29.1957 12.0652L29.5533 11.1612C28.8942 10.925 28.4693 11.262 28.0849 11.7413C28.0849 11.7413 28.0206 11.821 27.9567 11.8939V11.183H26.7932C26.6357 12.4374 26.357 13.7093 26.139 14.9658L26.0865 15.2393H27.3381C27.4566 14.6016 27.5542 14.0838 27.6514 13.6712C27.9173 12.5389 28.3646 12.1928 29.0363 12.3458C28.8813 12.6714 28.7962 13.048 28.7962 13.4654C28.7962 14.4774 29.3591 15.3059 30.7567 15.3059C32.1672 15.3059 33.1885 14.57 33.1885 12.8923C33.1885 11.8802 32.5079 11.0906 31.2253 11.0906ZM30.8611 14.3216C30.419 14.3284 30.1511 13.9663 30.1511 13.4244C30.1511 12.7822 30.5423 12.0566 31.1704 12.0566C31.6773 12.0566 31.8509 12.449 31.8509 12.867C31.8509 13.7811 31.4675 14.3216 30.8611 14.3216V14.3216ZM11.7186 15.2393H10.4724L11.2131 11.4288L9.50787 15.2393H8.37188L8.16405 11.4508L7.42109 15.2393H6.29041L7.25353 10.2827H9.20092L9.36334 13.0458L10.597 10.2827H12.701L11.7186 15.2393Z" fill="black"/>
<path d="M33.2836 14.6178C33.2837 14.4435 33.4284 14.3022 33.6069 14.3021C33.7856 14.3021 33.9302 14.4437 33.9302 14.6178C33.9335 14.7921 33.7915 14.9362 33.6129 14.9394C33.4344 14.9427 33.2869 14.804 33.2836 14.6295C33.2835 14.6256 33.2835 14.6217 33.2836 14.6178V14.6178ZM33.6069 14.8582C33.7427 14.858 33.8528 14.7504 33.8528 14.6178C33.8528 14.4853 33.7425 14.378 33.6069 14.378C33.4711 14.378 33.361 14.4854 33.361 14.6178C33.361 14.7504 33.4711 14.858 33.6069 14.8582ZM33.5632 14.7565H33.4969V14.4796H33.6168C33.6419 14.4796 33.6675 14.4796 33.6895 14.4932C33.7123 14.5084 33.7256 14.5351 33.7256 14.5624C33.7256 14.5939 33.7068 14.6232 33.6763 14.6341L33.7284 14.7565H33.655L33.612 14.647H33.5632V14.7565H33.5632V14.7565ZM33.5632 14.5992H33.5999C33.6134 14.5992 33.628 14.6001 33.6403 14.5939C33.6509 14.5866 33.6571 14.5746 33.6568 14.5619C33.6565 14.5507 33.6507 14.5403 33.641 14.534C33.6292 14.5269 33.6108 14.5287 33.5985 14.5287H33.5632V14.5992ZM20.1702 14.8364C19.7426 14.9471 19.3286 15.0013 18.8915 15.0004C17.4961 14.9991 16.7694 14.3784 16.7694 13.1916C16.7694 11.8053 17.6941 10.7851 18.9501 10.7851C19.9776 10.7851 20.6332 11.3568 20.6332 12.2526C20.6332 12.5504 20.5886 12.8394 20.4803 13.2495H17.9989C17.9106 13.8285 18.3436 14.0834 19.0815 14.0834C19.5235 14.0834 19.923 14.0057 20.3659 13.8319L20.1702 14.8364ZM19.5029 12.4315C19.5029 12.3441 19.6408 11.7216 18.923 11.7082C18.5265 11.7082 18.2422 11.9657 18.127 12.4315H19.5029V12.4315ZM21.0111 12.1593C21.0111 12.6718 21.306 13.0254 21.9774 13.2894C22.4908 13.4946 22.5714 13.554 22.5714 13.7368C22.5714 13.9909 22.3446 14.1077 21.8414 14.1044C21.4631 14.1019 21.1181 14.057 20.7112 13.9467L20.5306 14.8807C20.8927 14.9632 21.4006 14.9903 21.8499 15.0004C23.19 15.0004 23.8089 14.5717 23.8089 13.6457C23.8089 13.0892 23.5507 12.7613 22.9142 12.5175C22.3822 12.31 22.3199 12.2649 22.3199 12.0772C22.3199 11.8566 22.5309 11.7449 22.9416 11.7449C23.191 11.7449 23.5319 11.7676 23.8557 11.8056L24.037 10.8661C23.7072 10.8212 23.2071 10.7854 22.9178 10.7854C21.4977 10.7853 21.0067 11.4092 21.0111 12.1593V12.1593ZM16.0891 14.9335H15.0479L15.073 14.5076C14.7553 14.843 14.3326 14.9996 13.7589 14.9996C13.0798 14.9996 12.6143 14.5461 12.6143 13.8946C12.6143 12.9029 13.4228 12.3315 14.8136 12.3315C14.9566 12.3315 15.138 12.3419 15.3251 12.3621C15.3637 12.2296 15.374 12.1728 15.374 12.1002C15.374 11.8288 15.1555 11.7291 14.5703 11.7291C13.9934 11.7314 13.6042 11.8149 13.243 11.9096L13.4206 11.0001C14.0453 10.8449 14.4541 10.7852 14.9171 10.7852C15.9938 10.7852 16.5623 11.1974 16.5623 11.9722C16.5716 12.1792 16.4977 12.5939 16.461 12.7759C16.4184 13.04 16.12 14.5717 16.0891 14.9335V14.9335ZM15.175 13.1252C15.0435 13.1119 14.9858 13.1082 14.8954 13.1082C14.1859 13.1082 13.8256 13.3146 13.8256 13.722C13.8256 13.9777 14.0015 14.1378 14.2749 14.1378C14.7855 14.1377 15.1539 13.7209 15.175 13.1252ZM26.0022 14.8693C25.6608 14.9606 25.3944 15.0004 25.1067 15.0004C24.4689 15.0004 24.121 14.682 24.121 14.1151C24.1009 13.9596 24.2568 13.2403 24.2918 13.04C24.3272 12.8389 24.8796 9.90833 24.8796 9.90833H26.1184L25.9313 10.8779H26.5668L26.394 11.8677H25.7559C25.7559 11.8677 25.4055 13.5852 25.4055 13.7161C25.4055 13.9244 25.5349 14.0145 25.8312 14.0145C25.973 14.0145 26.0827 14.002 26.1675 13.9769L26.0022 14.8693V14.8693ZM32.164 12.5615C32.164 13.4753 31.7803 14.0164 31.1737 14.0164C30.7318 14.0225 30.4638 13.6609 30.4638 13.119C30.4638 12.4766 30.8548 11.751 31.483 11.751C31.9901 11.751 32.164 12.1439 32.164 12.5615V12.5615ZM33.5015 12.5869C33.5015 11.5749 32.8206 10.7851 31.5385 10.7851C30.0631 10.7851 29.1093 11.7451 29.1093 13.1598C29.1093 14.1718 29.6717 15.0004 31.0698 15.0004C32.4803 15.0004 33.5015 14.2644 33.5015 12.5869ZM27.106 10.8775C26.9486 12.1319 26.67 13.4036 26.4521 14.6605L26.3994 14.934H27.6508C28.1019 12.5069 28.2532 11.8154 29.1981 12.0589L29.6526 10.9103C28.9936 10.674 28.5692 11.0113 28.1852 11.4908C28.2198 11.275 28.2851 11.0669 28.2693 10.8776L27.106 10.8775V10.8775ZM12.0313 14.9339H10.7854L11.5258 11.1232L9.82039 14.9339H8.68463L8.4768 11.1452L7.73383 14.9339H6.60315L7.56605 9.97707H9.51388L9.61685 13.0456L10.9876 9.97707H13.0138L12.0313 14.9339" fill="white"/>
</svg>
