<svg width="40" height="25" viewBox="0 0 40 25" fill="none" xmlns="http://www.w3.org/2000/svg">
<path d="M23.3318 12.7037C23.3318 17.9689 18.9611 22.2365 13.5697 22.2365C8.1783 22.2365 3.80811 17.9687 3.80811 12.7037C3.80811 7.43899 8.17836 3.1709 13.5697 3.1709C18.961 3.1709 23.3318 7.4392 23.3318 12.7037Z" fill="#D9222A"/>
<path d="M26.6753 3.17065C24.1531 3.17065 21.8547 4.10513 20.1222 5.6384C19.7693 5.95115 19.4398 6.28828 19.1365 6.64723H21.1088C21.3788 6.96784 21.6274 7.30507 21.853 7.65691H18.3924C18.1843 7.98203 17.9965 8.31911 17.83 8.66638H22.4151C22.5725 8.99485 22.7105 9.33182 22.8285 9.67563H17.4168C17.3031 10.0067 17.2084 10.3437 17.1331 10.6851H23.1118C23.2581 11.3484 23.3318 12.0251 23.3316 12.7036C23.3316 13.7623 23.1547 14.7808 22.8284 15.7319H17.4167C17.5343 16.0758 17.6723 16.4129 17.8297 16.7413H22.415C22.2485 17.0887 22.0605 17.4258 21.8523 17.7511H18.3923C18.6178 18.1026 18.8664 18.4396 19.1365 18.7599H21.1083C20.8054 19.1195 20.4759 19.457 20.1224 19.7696C21.8548 21.3026 24.153 22.2367 26.6754 22.2367C32.0668 22.2367 36.4376 17.9689 36.4376 12.7039C36.4376 7.43938 32.0668 3.17108 26.6754 3.17108" fill="#EE9F2D"/>
<path d="M34.736 14.8926C34.736 14.7228 34.877 14.5846 35.0512 14.5846C35.2254 14.5846 35.3664 14.7228 35.3664 14.8926C35.3664 15.0625 35.2254 15.2007 35.0512 15.2007C34.877 15.2007 34.736 15.0625 34.736 14.8926ZM35.0512 15.1267C35.1836 15.1267 35.2909 15.0219 35.2909 14.8926C35.2909 14.7635 35.1837 14.6589 35.0515 14.6588C34.9194 14.6586 34.8119 14.763 34.8117 14.892V14.8927C34.8116 15.0219 34.9189 15.1266 35.0512 15.1267ZM35.0086 15.028H34.9441V14.7573H35.0609C35.0854 14.7573 35.1103 14.7573 35.1319 14.7708C35.1544 14.7856 35.167 14.8118 35.167 14.8387C35.167 14.8691 35.1487 14.8974 35.119 14.9084L35.17 15.0279H35.0985L35.0561 14.9208H35.0087L35.0086 15.028ZM35.0086 14.8745H35.0444C35.0578 14.8745 35.0719 14.8756 35.0839 14.8692C35.0945 14.8625 35.1 14.8501 35.1 14.8382C35.0997 14.8271 35.0939 14.8168 35.0843 14.8106C35.0731 14.8038 35.0552 14.8053 35.0431 14.8053H35.0086V14.8745ZM11.2902 13.7475C11.1789 13.7349 11.13 13.7316 11.0536 13.7316C10.4529 13.7316 10.1488 13.9327 10.1488 14.33C10.1488 14.5748 10.2972 14.7307 10.5288 14.7307C10.9605 14.7307 11.2716 14.3292 11.2902 13.7475ZM12.0608 15.4999H11.1828L11.2029 15.0922C10.935 15.4143 10.5778 15.5675 10.0921 15.5675C9.51769 15.5675 9.12391 15.1293 9.12391 14.4932C9.12391 13.536 9.8089 12.9774 10.9847 12.9774C11.1048 12.9774 11.2589 12.988 11.4165 13.0077C11.4494 12.8781 11.458 12.8225 11.458 12.7527C11.458 12.4921 11.2734 12.3949 10.7783 12.3949C10.2598 12.3892 9.83223 12.5155 9.65663 12.572C9.66773 12.5067 9.80346 11.6872 9.80346 11.6872C10.3316 11.5361 10.6799 11.4792 11.0719 11.4792C11.9818 11.4792 12.4639 11.8782 12.463 12.6323C12.4648 12.8344 12.4305 13.0837 12.3771 13.4114C12.2851 13.9815 12.0878 15.2023 12.0608 15.4999ZM8.68053 15.4999H7.62079L8.2278 11.7825L6.87232 15.4999H6.15019L6.06089 11.8038L5.42282 15.4999H4.43079L5.25941 10.6641H6.78325L6.8757 13.3709L7.8052 10.6641H9.50012L8.68053 15.4999ZM27.9845 13.7475C27.8738 13.7349 27.8246 13.7316 27.7484 13.7316C27.148 13.7316 26.8438 13.9327 26.8438 14.33C26.8438 14.5748 26.9921 14.7307 27.2236 14.7307C27.6554 14.7307 27.9666 14.3292 27.9845 13.7475ZM28.7559 15.4999H27.8778L27.8977 15.0922C27.6299 15.4143 27.2724 15.5675 26.7872 15.5675C26.2126 15.5675 25.8192 15.1293 25.8192 14.4932C25.8192 13.536 26.5037 12.9774 27.6797 12.9774C27.7998 12.9774 27.9537 12.988 28.1112 13.0077C28.144 12.8781 28.1527 12.8225 28.1527 12.7527C28.1527 12.4921 27.9682 12.3949 27.4731 12.3949C26.9547 12.3892 26.5276 12.5155 26.3513 12.572C26.3624 12.5067 26.4986 11.6872 26.4986 11.6872C27.0268 11.5361 27.3748 11.4792 27.7664 11.4792C28.6768 11.4792 29.1588 11.8782 29.1579 12.6323C29.1596 12.8344 29.1254 13.0837 29.072 13.4114C28.9804 13.9815 28.7827 15.2023 28.7559 15.4999ZM16.7706 15.4401C16.4806 15.5293 16.2545 15.5675 16.0093 15.5675C15.4675 15.5675 15.1718 15.2634 15.1718 14.7036C15.1641 14.5299 15.2498 14.0727 15.3171 13.6554C15.3783 13.2881 15.7766 10.9719 15.7766 10.9719H16.83L16.7069 11.5672H17.3432L17.1995 12.5123H16.5609C16.4386 13.2602 16.2643 14.1918 16.2623 14.3153C16.2623 14.5179 16.3731 14.6064 16.6251 14.6064C16.7459 14.6064 16.8394 14.5944 16.9108 14.5693L16.7706 15.4401ZM20.0005 15.4083C19.6386 15.5163 19.2894 15.5685 18.9194 15.5676C17.7402 15.5665 17.1255 14.965 17.1255 13.8133C17.1255 12.469 17.9075 11.4794 18.969 11.4794C19.8376 11.4794 20.3923 12.0335 20.3923 12.9025C20.3923 13.1908 20.3542 13.4723 20.2624 13.8697H18.1647C18.0937 14.4401 18.4676 14.6778 19.0803 14.6778C19.4574 14.6778 19.7975 14.6019 20.1757 14.4302L20.0005 15.4083ZM19.4084 13.0768C19.4142 12.9949 19.5201 12.3749 18.9182 12.3749C18.5826 12.3749 18.3427 12.6247 18.245 13.0768H19.4084ZM12.6965 12.8104C12.6965 13.3079 12.9435 13.6509 13.5037 13.9085C13.9329 14.1054 13.9992 14.1639 13.9992 14.3423C13.9992 14.5875 13.81 14.6982 13.3906 14.6982C13.0745 14.6982 12.7804 14.65 12.4412 14.543C12.4412 14.543 12.3018 15.4098 12.2955 15.4513C12.5364 15.5026 12.7512 15.5501 13.3983 15.5676C14.5165 15.5676 15.033 15.1518 15.033 14.2532C15.033 13.7128 14.8167 13.3957 14.2859 13.1574C13.8416 12.9582 13.7906 12.9137 13.7906 12.7301C13.7906 12.5175 13.9666 12.409 14.3092 12.409C14.5173 12.409 14.8014 12.4307 15.0706 12.4681L15.2215 11.556C14.9471 11.5135 14.5311 11.4794 14.2888 11.4794C13.1033 11.4794 12.6929 12.0842 12.6965 12.8104ZM25.1549 11.5828C25.4492 11.5828 25.7237 11.6582 26.1018 11.8441L26.2752 10.7945C26.12 10.735 25.5735 10.3856 25.1105 10.3856C24.4013 10.3856 23.8018 10.7293 23.3801 11.2964C22.7651 11.0975 22.5122 11.4996 22.2023 11.9001L21.927 11.9627C21.9478 11.8308 21.9666 11.6998 21.9603 11.5673H20.987C20.8541 12.7843 20.6184 14.017 20.4339 15.2357L20.3858 15.4999H21.4461C21.623 14.3771 21.72 13.6582 21.7789 13.1716L22.1782 12.9547C22.2378 12.7381 22.4245 12.6648 22.799 12.6737C22.7487 12.9397 22.7235 13.2096 22.7238 13.4801C22.7238 14.7666 23.4346 15.5676 24.5755 15.5676C24.8694 15.5676 25.1216 15.5298 25.5121 15.4265L25.6986 14.324C25.3474 14.493 25.0591 14.5724 24.7981 14.5724C24.182 14.5724 23.8092 14.1283 23.8092 13.3942C23.8092 12.3294 24.3637 11.5828 25.1549 11.5828Z" fill="black"/>
<path d="M8.98589 15.2126H7.92593L8.53344 11.4957L7.17791 15.2126H6.45555L6.36625 11.5169L5.72819 15.2126H4.73621L5.56483 10.3776H7.08867L7.13152 13.3708L8.15956 10.3776H9.80554L8.98589 15.2126Z" fill="white"/>
<path d="M34.1273 10.6644L33.8923 12.0616C33.6025 11.6892 33.2911 11.4197 32.8801 11.4197C32.3454 11.4197 31.8586 11.8156 31.54 12.3982C31.0964 12.3083 30.6374 12.1558 30.6374 12.1558L30.6372 12.1594C30.673 11.8336 30.6873 11.635 30.6841 11.5675H29.7107C29.5781 12.7845 29.3424 14.0172 29.1583 15.2359L29.1097 15.5001H30.1698C30.3129 14.5922 30.4225 13.8383 30.5033 13.2404C30.8654 12.9209 31.0467 12.642 31.4126 12.6606C31.2506 13.0433 31.1557 13.484 31.1557 13.9361C31.1557 14.9193 31.665 15.5678 32.4354 15.5678C32.8238 15.5678 33.1218 15.4371 33.4125 15.1339L33.3629 15.4995H34.3654L35.1725 10.6645L34.1273 10.6644V10.6644ZM32.8019 14.5912C32.4411 14.5912 32.259 14.3306 32.259 13.8161C32.259 13.0431 32.6 12.495 33.0808 12.495C33.4449 12.495 33.6421 12.7661 33.6421 13.2656C33.6421 14.0451 33.2956 14.5912 32.8019 14.5912V14.5912Z" fill="black"/>
<path d="M11.1421 13.3967C11.0309 13.3841 10.9816 13.3807 10.9054 13.3807C10.3036 13.3807 9.99923 13.5822 9.99923 13.9801C9.99923 14.225 10.1479 14.3816 10.3794 14.3816C10.8123 14.3815 11.124 13.9794 11.1421 13.3967V13.3967ZM11.9145 15.1514H11.0349L11.0549 14.7437C10.7868 15.0658 10.4284 15.2198 9.94246 15.2198C9.36683 15.2198 8.97253 14.7809 8.97253 14.1437C8.97253 13.1844 9.65849 12.6253 10.8365 12.6253C10.9568 12.6253 11.1112 12.6359 11.2689 12.6557C11.3018 12.5258 11.3105 12.4702 11.3105 12.3999C11.3105 12.1387 11.1257 12.0419 10.6298 12.0419C10.1102 12.0362 9.68213 12.1627 9.50601 12.2186C9.51712 12.1534 9.65309 11.3335 9.65309 11.3335C10.1819 11.1815 10.5312 11.1245 10.9235 11.1245C11.8352 11.1245 12.3182 11.5244 12.3174 12.2791C12.3189 12.4824 12.2845 12.732 12.2311 13.0598C12.1392 13.6303 11.9413 14.8539 11.9145 15.1514V15.1514ZM26.1532 10.4384L25.9794 11.49C25.6008 11.304 25.3257 11.2282 25.0311 11.2282C24.2384 11.2282 23.6829 11.9761 23.6829 13.0426C23.6829 13.7779 24.0564 14.2226 24.6734 14.2226C24.9349 14.2226 25.2234 14.1432 25.5752 13.9739L25.3889 15.0778C24.9975 15.1819 24.7452 15.2198 24.4505 15.2198C23.3078 15.2198 22.5956 14.4174 22.5956 13.1286C22.5956 11.397 23.5794 10.1868 24.9864 10.1868C25.4498 10.1868 25.9975 10.3788 26.1532 10.4384V10.4384ZM27.8661 13.3967C27.7549 13.3841 27.7058 13.3807 27.6293 13.3807C27.0278 13.3807 26.7232 13.5822 26.7232 13.9801C26.7232 14.225 26.8718 14.3816 27.1036 14.3816C27.536 14.3815 27.8479 13.9794 27.8661 13.3967V13.3967ZM28.6384 15.1514H27.7586L27.7788 14.7437C27.5106 15.0658 27.1524 15.2198 26.6664 15.2198C26.091 15.2198 25.6965 14.7809 25.6965 14.1437C25.6965 13.1844 26.3827 12.6253 27.5602 12.6253C27.6808 12.6253 27.8349 12.6359 27.9928 12.6557C28.0256 12.5258 28.0344 12.4702 28.0344 12.3999C28.0344 12.1387 27.8496 12.0419 27.3537 12.0419C26.8344 12.0362 26.4061 12.1627 26.2299 12.2186C26.241 12.1534 26.3772 11.3335 26.3772 11.3335C26.9061 11.1815 27.2551 11.1245 27.6473 11.1245C28.5593 11.1245 29.0421 11.5244 29.041 12.2791C29.0428 12.4824 29.0085 12.732 28.955 13.0598C28.8633 13.6303 28.665 14.8539 28.6384 15.1514ZM16.6326 15.0917C16.3418 15.181 16.1153 15.2198 15.87 15.2198C15.3273 15.2198 15.0311 14.9152 15.0311 14.3544C15.0236 14.1799 15.1094 13.7224 15.1768 13.3045C15.2378 12.936 15.6369 10.6161 15.6369 10.6161H16.6919L16.5688 11.2126H17.1104L16.9662 12.1589H16.4228C16.3003 12.9086 16.1252 13.841 16.1234 13.965C16.1234 14.1687 16.2346 14.2566 16.4868 14.2566C16.6078 14.2566 16.7014 14.2451 16.7731 14.2198L16.6326 15.0917V15.0917ZM19.868 15.0602C19.5057 15.1684 19.1555 15.2205 18.785 15.2198C17.6037 15.2187 16.9881 14.6162 16.9881 13.4625C16.9881 12.1155 17.7714 11.1244 18.8347 11.1244C19.7047 11.1244 20.2604 11.6793 20.2604 12.5502C20.2604 12.8392 20.2223 13.1211 20.1305 13.519H18.0292C17.9581 14.0904 18.3326 14.3288 18.9464 14.3288C19.3239 14.3288 19.6648 14.2525 20.0434 14.08L19.868 15.0602V15.0602ZM19.2747 12.7242C19.281 12.6424 19.3869 12.021 18.7837 12.021C18.4477 12.021 18.2074 12.272 18.1096 12.7242H19.2747ZM12.5513 12.4579C12.5513 12.9562 12.7988 13.2994 13.3599 13.5578C13.7898 13.7551 13.8562 13.8138 13.8562 13.9925C13.8562 14.2381 13.6665 14.3489 13.2468 14.3489C12.9299 14.3489 12.6353 14.3006 12.2952 14.1935C12.2952 14.1935 12.1561 15.0618 12.1497 15.1033C12.3906 15.1547 12.606 15.2017 13.2542 15.2198C14.3746 15.2198 14.8917 14.8033 14.8917 13.9034C14.8917 13.3618 14.6754 13.0442 14.1434 12.8055C13.6985 12.6055 13.6469 12.5617 13.6469 12.3775C13.6469 12.1647 13.8238 12.0552 14.1667 12.0552C14.3749 12.0552 14.6595 12.0775 14.9296 12.115L15.0806 11.2011C14.8059 11.1585 14.3892 11.1244 14.1465 11.1244C12.9588 11.1244 12.5479 11.7298 12.5513 12.4579V12.4579ZM34.257 15.1514H33.2526L33.3025 14.7847C33.0112 15.0888 32.7128 15.2198 32.3237 15.2198C31.552 15.2198 31.042 14.5701 31.042 13.5852C31.042 12.275 31.8331 11.1705 32.7693 11.1705C33.1811 11.1705 33.4927 11.3347 33.7828 11.7076L34.0184 10.308H35.0654L34.257 15.1514V15.1514ZM32.691 14.2412C33.1854 14.2412 33.5327 13.6941 33.5327 12.9137C33.5327 12.4134 33.335 12.1419 32.9702 12.1419C32.4888 12.1419 32.1468 12.6906 32.1468 13.4652C32.1468 13.9805 32.3297 14.2412 32.691 14.2412ZM29.5946 11.2126C29.4616 12.4318 29.2256 13.6667 29.041 14.8867L28.9924 15.1514H30.0542C30.434 12.7428 30.5258 12.2725 31.1212 12.3314C31.2161 11.8384 31.3926 11.4067 31.5243 11.1888C31.0796 11.0983 30.8313 11.3437 30.5063 11.8099C30.5319 11.6083 30.5789 11.4126 30.5696 11.2127L29.5946 11.2126V11.2126ZM20.8556 11.2126C20.7224 12.4318 20.4864 13.6667 20.3018 14.8867L20.2534 15.1514H21.3157C21.695 12.7428 21.7867 12.2725 22.3818 12.3314C22.4771 11.8384 22.6537 11.4067 22.7848 11.1888C22.3406 11.0983 22.0921 11.3437 21.7673 11.8099C21.7929 11.6083 21.8394 11.4126 21.8306 11.2127L20.8556 11.2126V11.2126ZM34.7234 14.843C34.7232 14.6728 34.8643 14.5347 35.0385 14.5345H35.0391C35.2133 14.5343 35.3547 14.672 35.3549 14.8421V14.843C35.3548 15.0132 35.2135 15.1512 35.0391 15.1514C34.8648 15.1512 34.7235 15.0132 34.7234 14.843V14.843ZM35.0391 15.0773C35.1716 15.0774 35.2789 14.9726 35.279 14.8433V14.8431C35.2792 14.7136 35.1718 14.6087 35.0394 14.6086H35.0391C34.9065 14.6086 34.7991 14.7136 34.799 14.8431C34.7991 14.9724 34.9066 15.0773 35.0391 15.0773ZM34.9964 14.9778H34.9317V14.7074H35.049C35.0733 14.7074 35.0985 14.7079 35.1196 14.7209C35.1423 14.736 35.1552 14.7617 35.1552 14.7887C35.1552 14.8193 35.1369 14.8479 35.1068 14.8588L35.1581 14.9777H35.0862L35.0438 14.8708H34.9964L34.9964 14.9778ZM34.9964 14.8246H35.032C35.0454 14.8246 35.0599 14.8256 35.0717 14.8193C35.0824 14.8126 35.0878 14.8001 35.0878 14.788C35.0873 14.7768 35.0816 14.7665 35.0722 14.7602C35.0611 14.754 35.0427 14.7557 35.0306 14.7557H34.9964L34.9964 14.8246V14.8246Z" fill="white"/>
</svg>
