<svg width="40" height="25" viewBox="0 0 40 25" fill="none" xmlns="http://www.w3.org/2000/svg">
<path d="M27.9025 12.0249V17.4249H30.9794V14.2249H34.4666C35.9332 14.2149 37.1794 13.2999 37.6512 12.0249H27.9025Z" fill="#37A72E"/>
<path d="M27.4923 7.57495C27.6718 9.77995 29.8154 11.525 32.4308 11.525C32.441 11.525 37.7795 11.525 37.7795 11.525C37.8205 11.325 37.841 11.115 37.841 10.9C37.841 9.06995 36.3282 7.58995 34.4564 7.57495H27.4923Z" fill="url(#paint0_linear_0_240)"/>
<path d="M22.9384 11.47V11.465V11.47C22.9743 11.41 23.0307 11.375 23.1025 11.375C23.205 11.375 23.282 11.455 23.2871 11.55V17.375H26.364V7.57495H23.2871C22.8973 7.58995 22.4563 7.86495 22.2922 8.20995L19.8461 13.33C19.8409 13.35 19.8307 13.37 19.8204 13.39C19.7845 13.44 19.723 13.475 19.6512 13.475C19.5384 13.475 19.4461 13.385 19.4461 13.275V7.57495H16.3691V17.375H19.4461C19.8307 17.355 20.2614 17.08 20.4255 16.74L22.9384 11.485C22.9332 11.48 22.9384 11.475 22.9384 11.47Z" fill="#37A72E"/>
<path d="M11.4512 11.6399L9.65124 17.3749H7.43586L5.64099 11.6349C5.6256 11.5449 5.54355 11.4749 5.44099 11.4749C5.32816 11.4749 5.24099 11.5649 5.24099 11.6699V17.3699H2.16406V7.56995H4.80509H5.5897C6.15381 7.56995 6.74868 7.99995 6.91278 8.52495L8.41022 13.2999C8.48714 13.5399 8.60509 13.5349 8.68201 13.2999L10.1794 8.52495C10.3435 7.99495 10.9384 7.56995 11.5025 7.56995H12.2871H14.9282V17.3699H11.8512V11.6699C11.8512 11.6699 11.8512 11.6699 11.8512 11.6649C11.8512 11.5549 11.7589 11.4699 11.6512 11.4699C11.5487 11.4749 11.4666 11.5449 11.4512 11.6399Z" fill="#37A72E"/>
<defs>
<linearGradient id="paint0_linear_0_240" x1="27.4936" y1="9.54996" x2="37.8404" y2="9.54996" gradientUnits="userSpaceOnUse">
<stop stop-color="#00A0E5"/>
<stop offset="1" stop-color="#0077C3"/>
</linearGradient>
</defs>
</svg>
