<svg width="16" height="16" viewBox="0 0 16 16" fill="none" xmlns="http://www.w3.org/2000/svg">
<path fill-rule="evenodd" clip-rule="evenodd" d="M8 14.0001C4.688 14.0001 2 11.3181 2 8.00012C2 4.68812 4.688 2.00012 8 2.00012C11.318 2.00012 14 4.68812 14 8.00012C14 11.3181 11.318 14.0001 8 14.0001ZM9.91401 10.2262C9.98601 10.2682 10.064 10.2922 10.148 10.2922C10.298 10.2922 10.448 10.2142 10.532 10.0702C10.658 9.86015 10.592 9.58415 10.376 9.45215L8.24002 8.18015V5.40815C8.24002 5.15615 8.03602 4.95815 7.79001 4.95815C7.54401 4.95815 7.34001 5.15615 7.34001 5.40815V8.43815C7.34001 8.59415 7.42402 8.73815 7.56202 8.82215L9.91401 10.2262Z" fill="#81BC3D"/>
</svg>
